P2
# CREATOR: GIMP PNM Filter Version 1.1
40 40
255
255
255
255
255
255
255
255
255
255
255
255
255
255
255
255
255
255
255
255
255
255
255
255
255
255
255
255
255
255
255
255
255
255
255
255
255
255
255
255
255
255
255
255
255
255
255
255
255
255
255
255
255
255
255
255
255
255
255
255
255
255
255
255
255
255
255
255
255
255
255
255
255
255
255
255
255
255
255
255
255
255
255
255
255
255
255
255
255
255
255
255
255
255
255
255
255
255
255
255
255
255
255
255
255
255
255
255
54
60
252
255
255
249
48
72
255
255
255
255
255
255
255
255
255
255
255
255
255
255
255
255
255
255
255
255
255
255
255
255
255
255
255
255
255
255
255
255
39
0
150
255
255
135
0
54
255
255
255
255
255
255
255
255
255
255
255
255
255
255
255
255
255
255
255
255
255
255
255
255
255
255
255
255
255
255
255
255
180
0
18
237
228
12
0
195
255
255
255
255
255
255
255
255
255
255
255
255
255
255
255
255
255
255
255
255
255
255
255
255
255
255
255
255
255
255
255
255
255
75
0
147
132
0
90
255
255
255
255
255
255
255
255
255
255
255
255
255
255
255
255
255
255
255
255
255
255
255
255
255
255
255
255
255
255
255
255
255
255
228
114
228
222
114
234
255
255
255
255
255
255
255
255
255
255
255
255
255
255
255
255
255
255
255
255
255
255
255
255
255
255
255
255
255
255
66
0
0
0
66
255
255
255
255
66
0
0
0
66
255
255
255
255
255
255
255
255
255
255
255
255
255
255
255
255
255
255
255
255
255
255
255
255
255
255
72
0
0
0
72
246
0
6
255
72
0
0
0
72
255
255
255
255
255
255
255
255
255
255
255
255
255
255
255
255
255
255
255
255
255
255
255
255
255
255
255
255
255
255
255
210
0
24
255
255
255
255
255
255
255
255
255
255
255
255
255
255
255
255
255
255
255
210
129
60
51
3
3
51
60
129
210
255
255
255
255
219
255
255
255
135
0
69
255
255
255
255
255
255
255
255
255
255
255
255
255
255
255
255
255
174
39
0
0
0
0
0
0
0
0
0
0
39
171
255
144
6
171
255
240
27
0
144
255
255
255
255
255
255
255
255
255
255
255
255
255
255
255
225
57
0
0
0
0
0
0
0
0
0
0
0
0
0
0
39
0
0
6
171
81
0
18
237
255
255
255
255
255
255
255
255
255
255
255
255
255
255
192
18
0
0
0
0
0
0
0
0
0
0
0
0
0
0
0
0
0
0
0
0
0
6
180
255
255
255
255
255
255
255
255
255
255
255
255
255
255
189
6
0
0
0
0
0
0
0
0
0
0
0
0
0
0
0
0
0
0
0
0
0
0
111
255
255
255
255
255
255
255
255
255
255
255
255
255
255
219
21
0
0
0
0
0
0
0
0
0
0
0
0
0
0
0
0
0
0
0
0
0
0
0
6
171
255
255
255
255
255
255
255
255
255
255
255
255
255
60
0
0
0
0
0
0
0
0
0
0
0
0
0
0
0
0
0
0
0
0
0
0
0
0
0
6
207
255
255
255
255
255
255
255
255
255
255
255
171
0
0
0
0
0
0
0
0
0
0
0
0
0
0
0
0
0
0
0
0
0
0
0
0
0
0
111
255
255
255
255
255
255
255
255
255
255
255
252
39
0
0
0
0
0
0
0
0
0
0
0
0
0
0
0
0
0
0
0
0
0
0
0
0
0
111
255
255
255
255
255
255
255
255
255
255
255
255
192
0
0
0
0
0
0
0
0
0
0
0
0
0
0
0
0
0
0
0
0
0
0
0
0
0
0
189
255
255
255
255
255
255
255
255
255
255
255
255
120
0
0
0
0
0
0
0
0
0
0
0
0
0
0
0
0
0
0
0
0
0
0
0
0
0
0
120
255
255
255
255
255
255
255
255
255
255
255
255
63
0
0
0
0
0
0
0
0
0
0
0
0
0
0
0
0
0
0
0
0
0
0
0
0
0
0
60
255
255
255
255
255
255
255
255
255
255
255
255
21
0
0
0
0
0
0
0
0
0
0
0
0
0
0
0
0
0
0
0
0
0
0
0
0
0
0
21
255
255
255
255
255
255
255
255
255
255
255
255
6
0
0
0
0
0
0
0
0
0
0
0
0
0
0
0
0
0
0
0
0
0
0
0
0
0
0
6
255
255
255
255
255
255
255
255
255
255
255
255
6
0
0
0
0
0
0
0
0
0
0
0
0
0
0
0
0
0
0
0
0
0
0
0
0
0
0
6
255
255
255
255
255
255
255
255
255
255
255
255
21
0
0
0
0
0
0
0
0
0
0
0
0
0
0
0
0
0
0
0
0
0
0
0
0
0
0
21
255
255
255
255
255
255
255
255
255
255
255
255
63
0
0
0
0
0
0
0
0
0
0
0
0
0
0
0
0
0
0
0
0
0
0
0
0
0
0
60
255
255
255
255
255
255
255
255
255
255
255
255
120
0
0
0
0
0
0
0
0
0
0
0
0
0
0
0
0
0
0
0
0
0
0
0
0
0
0
120
255
255
255
255
255
255
255
255
255
255
255
255
192
0
0
0
0
0
0
0
0
0
0
0
0
0
0
0
0
0
0
0
0
0
0
0
0
0
0
189
255
255
255
255
255
255
255
255
255
255
255
255
255
39
0
0
0
0
0
0
0
0
0
0
0
0
0
0
0
0
0
0
0
0
0
0
0
0
39
255
255
255
255
255
255
255
255
255
255
255
255
255
255
171
0
0
0
0
0
0
0
0
0
0
0
0
0
0
0
0
0
0
0
0
0
0
0
0
171
255
255
255
255
255
255
255
255
255
255
255
255
255
255
255
60
0
0
0
0
0
0
0
0
0
0
0
0
0
0
0
0
0
0
0
0
0
0
57
255
255
255
255
255
255
255
255
255
255
255
255
255
255
255
255
219
21
0
0
0
0
0
0
0
0
0
0
0
0
0
0
0
0
0
0
0
0
21
219
255
255
255
255
255
255
255
255
255
255
255
255
255
255
255
255
255
192
6
0
0
0
0
0
0
0
0
0
0
0
0
0
0
0
0
0
0
6
189
255
255
255
255
255
255
255
255
255
255
255
255
255
255
255
255
255
255
255
192
18
0
0
0
0
0
0
0
0
0
0
0
0
0
0
0
0
18
192
255
255
255
255
255
255
255
255
255
255
255
255
255
255
255
255
255
255
255
255
255
225
57
0
0
0
0
0
0
0
0
0
0
0
0
0
0
57
222
255
255
255
255
255
255
255
255
255
255
255
255
255
255
255
255
255
255
255
255
255
255
255
255
171
36
0
0
0
0
0
0
0
0
0
0
36
168
255
255
255
255
255
255
255
255
255
255
255
255
255
255
255
255
255
255
255
255
255
255
255
255
255
255
255
255
204
126
57
48
0
0
48
57
126
204
255
255
255
255
255
255
255
255
255
255
255
255
255
255
255
255
255
255
255
255
255
255
255
255
255
255
255
255
255
255
255
255
255
255
255
255
255
255
255
255
255
255
255
255
255
255
255
255
255
255
255
255
255
255
255
255
255
255
255
255
255
255
255
255
255
255
255
255
255
255
255
255
255
255
255
255
255
255
255
255
255
255
255
255
255
255
255
255
255
255
255
255
255
255
255
255
255
255
255
